<svg id="bt_8_pdf" xmlns="http://www.w3.org/2000/svg" width="34" height="34" viewBox="0 0 34 34">
  <rect id="사각형_284" data-name="사각형 284" width="34" height="34" fill="#fff"/>
  <g id="그룹_846" data-name="그룹 846" transform="translate(1 -1)">
    <g id="패스_23043" data-name="패스 23043" transform="translate(10 7)" fill="none">
      <path d="M3,0h9a3,3,0,0,1,3,3V17a3,3,0,0,1-3,3H3a3,3,0,0,1-3-3V3A3,3,0,0,1,3,0Z" stroke="none"/>
      <path d="M 3 1.200000762939453 C 2.007479667663574 1.200000762939453 1.199999809265137 2.007480621337891 1.199999809265137 3 L 1.199999809265137 17 C 1.199999809265137 17.99251937866211 2.007479667663574 18.79999923706055 3 18.79999923706055 L 12 18.79999923706055 C 12.99252033233643 18.79999923706055 13.80000019073486 17.99251937866211 13.80000019073486 17 L 13.80000019073486 3 C 13.80000019073486 2.007480621337891 12.99252033233643 1.200000762939453 12 1.200000762939453 L 3 1.200000762939453 M 3 0 L 12 0 C 13.65684986114502 0 15 1.343149185180664 15 3 L 15 17 C 15 18.65685081481934 13.65684986114502 20 12 20 L 3 20 C 1.34315013885498 20 0 18.65685081481934 0 17 L 0 3 C 0 1.343149185180664 1.34315013885498 0 3 0 Z" stroke="none" fill="#3d3d3d"/>
    </g>
    <rect id="사각형_6895" data-name="사각형 6895" width="11" height="5" transform="translate(6.5 14.5)" fill="#fff"/>
    <path id="빼기_103" data-name="빼기 103" d="M15602.5,8411.994h-12a.5.5,0,0,1-.5-.492v-6a.5.5,0,0,1,.5-.506h12a.5.5,0,0,1,.5.506v6A.5.5,0,0,1,15602.5,8411.994Zm-2.863-5.471h0v3.6h.645v-1.49h1.574v-.539h-1.574v-1.033h1.68v-.541Zm-3.77,0h0v3.6h1.258a2.108,2.108,0,0,0,.715-.105,1.155,1.155,0,0,0,.492-.293,1.252,1.252,0,0,0,.27-.48,2.518,2.518,0,0,0,.086-.658v-.516a1.61,1.61,0,0,0-.379-1.15,1.572,1.572,0,0,0-1.2-.4Zm-3.461,0h0v3.6h.645v-1.385h.715a1.485,1.485,0,0,0,.543-.082,1.133,1.133,0,0,0,.387-.234.926.926,0,0,0,.234-.352,1.2,1.2,0,0,0,.07-.412v-.105a1.122,1.122,0,0,0-.07-.41.78.78,0,0,0-.223-.328.891.891,0,0,0-.375-.211,1.589,1.589,0,0,0-.566-.084Zm4.625,3.064h-.527v-2.523h.527a1.082,1.082,0,0,1,.75.234,1,1,0,0,1,.258.8v.457a1.519,1.519,0,0,1-.07.494.819.819,0,0,1-.187.316,1.4,1.4,0,0,1-.316.176A1.647,1.647,0,0,1,15597.027,8409.588Zm-3.348-1.385h-.633v-1.139h.691a.9.9,0,0,1,.25.023.543.543,0,0,1,.2.07.463.463,0,0,1,.117.152.564.564,0,0,1,.047.246v.094a.487.487,0,0,1-.176.436A.861.861,0,0,1,15593.68,8408.2Z" transform="translate(-15584.5 -8391.5)" fill="#3d3d3d"/>
  </g>
</svg>
